HIERARCHY
ROOT Hips
{
	OFFSET 0.00000 0.00000 0.00000
	CHANNELS 6 Xposition Yposition Zposition Zrotation Yrotation Xrotation 
	JOINT LHipJoint
	{
		OFFSET 0 0 0
		CHANNELS 3 Zrotation Yrotation Xrotation
		JOINT LeftUpLeg
		{
			OFFSET 1.28858 -1.83292 1.03970
			CHANNELS 3 Zrotation Yrotation Xrotation
			JOINT LeftLeg
			{
				OFFSET 2.47846 -6.80952 0.00000
				CHANNELS 3 Zrotation Yrotation Xrotation
				JOINT LeftFoot
				{
					OFFSET 2.75274 -7.56311 0.00000
					CHANNELS 3 Zrotation Yrotation Xrotation
					JOINT LeftToeBase
					{
						OFFSET 0.12848 -0.35301 1.68223
						CHANNELS 3 Zrotation Yrotation Xrotation
						End Site
						{
							OFFSET 0.00000 -0.00000 0.87311
						}
					}
				}
			}
		}
	}
	JOINT RHipJoint
	{
		OFFSET 0 0 0
		CHANNELS 3 Zrotation Yrotation Xrotation
		JOINT RightUpLeg
		{
			OFFSET -1.31183 -1.83292 1.03970
			CHANNELS 3 Zrotation Yrotation Xrotation
			JOINT RightLeg
			{
				OFFSET -2.44740 -6.72417 0.00000
				CHANNELS 3 Zrotation Yrotation Xrotation
				JOINT RightFoot
				{
					OFFSET -2.67343 -7.34519 0.00000
					CHANNELS 3 Zrotation Yrotation Xrotation
					JOINT RightToeBase
					{
						OFFSET -0.16914 -0.46471 1.77626
						CHANNELS 3 Zrotation Yrotation Xrotation
						End Site
						{
							OFFSET -0.00000 -0.00000 0.92777
						}
					}
				}
			}
		}
	}
	JOINT LowerBack
	{
		OFFSET 0 0 0
		CHANNELS 3 Zrotation Yrotation Xrotation
		JOINT Spine
		{
			OFFSET 0.01249 2.14252 0.03842
			CHANNELS 3 Zrotation Yrotation Xrotation
			JOINT Spine1
			{
				OFFSET -0.02957 2.14199 -0.03751
				CHANNELS 3 Zrotation Yrotation Xrotation
				JOINT Neck
				{
					OFFSET 0 0 0
					CHANNELS 3 Zrotation Yrotation Xrotation
					JOINT Neck1
					{
						OFFSET -0.01678 1.65709 -0.05476
						CHANNELS 3 Zrotation Yrotation Xrotation
						JOINT Head
						{
							OFFSET 0.07912 1.58331 -0.11843
							CHANNELS 3 Zrotation Yrotation Xrotation
							End Site
							{
								OFFSET 0.03298 1.73940 -0.04271
							}
						}
					}
				}
				JOINT LeftShoulder
				{
					OFFSET 0 0 0
					CHANNELS 3 Zrotation Yrotation Xrotation
					JOINT LeftArm
					{
						OFFSET 3.39556 1.16496 0.08673
						CHANNELS 3 Zrotation Yrotation Xrotation
						JOINT LeftForeArm
						{
							OFFSET 5.23910 -0.00000 -0.00000
							CHANNELS 3 Zrotation Yrotation Xrotation
							JOINT LeftHand
							{
								OFFSET 3.31467 -0.00000 0.00000
								CHANNELS 3 Zrotation Yrotation Xrotation
								JOINT LeftFingerBase
								{
									OFFSET 0 0 0
									CHANNELS 3 Zrotation Yrotation Xrotation
									JOINT LeftHandIndex1
									{
										OFFSET 0.96590 -0.00000 0.00000
										CHANNELS 3 Zrotation Yrotation Xrotation
										End Site
										{
											OFFSET 0.77873 -0.00000 0.00000
										}
									}
								}
								JOINT LThumb
								{
									OFFSET 0 0 0
									CHANNELS 3 Zrotation Yrotation Xrotation
									End Site
									{
										OFFSET 0.79062 -0.00000 0.79062
									}
								}
							}
						}
					}
				}
				JOINT RightShoulder
				{
					OFFSET 0 0 0
					CHANNELS 3 Zrotation Yrotation Xrotation
					JOINT RightArm
					{
						OFFSET -3.27193 1.31331 0.33940
						CHANNELS 3 Zrotation Yrotation Xrotation
						JOINT RightForeArm
						{
							OFFSET -5.30252 -0.00000 0.00000
							CHANNELS 3 Zrotation Yrotation Xrotation
							JOINT RightHand
							{
								OFFSET -3.67875 -0.00000 0.00000
								CHANNELS 3 Zrotation Yrotation Xrotation
								JOINT RightFingerBase
								{
									OFFSET 0 0 0
									CHANNELS 3 Zrotation Yrotation Xrotation
									JOINT RightHandIndex1
									{
										OFFSET -0.59481 -0.00000 0.00000
										CHANNELS 3 Zrotation Yrotation Xrotation
										End Site
										{
											OFFSET -0.47955 -0.00000 0.00000
										}
									}
								}
								JOINT RThumb
								{
									OFFSET 0 0 0
									CHANNELS 3 Zrotation Yrotation Xrotation
									End Site
									{
										OFFSET -0.48687 -0.00000 0.48687
									}
								}
							}
						}
					}
				}
			}
		}
	}
}
MOTION
Frames: 7
Frame Time: .0083333
11.0737 19.0607 11.4238 0.8250 -6.0320 23.6759 0.0000 0.0000 0.0000 4.5909 -16.8507 -77.4877 13.7047 19.0220 71.3006 0.1760 -10.1896 -9.7308 0.0275 1.0698 2.9410 0.0000 0.0000 0.0000 -1.0843 12.4856 -76.8434 -14.1783 -19.1672 72.7483 -0.9877 -1.0215 -19.1740 -0.1816 -2.7449 7.5693 1.7313 1.1704 21.0168 -0.3510 1.8296 4.9146 -1.8363 0.8480 -6.3210 -0.1253 -1.5821 2.5603 2.9141 -1.5924 -27.1525 1.1521 -1.0636 -8.8496 -0.0000 0.0000 0.0000 -84.7026 61.5493 23.0599 0.8890 -1.5394 -0.0119 -0.0000 0.0000 -1.6855 -4.0905 -11.2734 0.8010 -7.1250 0.0000 -0.0000 -21.5590 19.0157 14.4098 -0.0000 0.0000 0.0000 106.0343 -66.9715 -72.8359 -5.2359 8.9819 -0.4115 0.0000 0.0000 32.6940 -0.3588 -42.3082 0.2415 7.1250 -0.0000 -0.0000 48.2480 -66.0713 -27.1700
11.0860 18.8382 11.3446 0.8230 -6.0454 23.8857 0.0000 0.0000 0.0000 5.0412 -16.8122 -78.8473 14.0836 19.1392 72.4597 0.2484 -10.2853 -10.7073 0.0188 0.8844 2.4307 0.0000 0.0000 0.0000 -1.4259 12.4507 -78.1468 -14.5750 -19.2793 73.9532 -1.0763 -1.4456 -20.1720 -0.2275 -3.0699 8.4733 1.8231 1.1440 21.1508 -0.3261 1.8120 5.2911 -1.8537 0.8454 -5.9812 -0.3233 -1.6023 2.1591 3.2418 -1.5625 -27.4105 1.2954 -1.0636 -8.8608 0.0000 0.0000 0.0000 -86.5107 63.7329 21.8978 0.8305 -1.4381 -0.0104 -0.0000 0.0000 -3.5387 -4.5878 -11.1852 0.8918 -7.1250 0.0000 -0.0000 -21.8969 19.0969 14.6302 0.0000 0.0000 0.0000 110.0479 -68.3401 -82.5294 -5.2091 8.9368 -0.4074 0.0000 0.0000 34.5971 0.3992 -41.7423 -0.2658 7.1250 -0.0000 -0.0000 48.0134 -65.4700 -26.3781
11.0970 18.6161 11.2760 0.8328 -6.0123 24.0763 0.0000 0.0000 0.0000 5.3504 -16.7549 -80.0259 14.4800 19.2532 73.6652 0.3289 -10.4719 -11.7488 0.0141 0.7656 2.1041 0.0000 0.0000 0.0000 -1.6314 12.3260 -79.1463 -14.8607 -19.3546 74.8169 -1.1594 -1.4920 -20.9327 -0.2931 -3.4811 9.6212 1.9125 1.1049 21.2679 -0.2822 1.7795 5.6122 -1.8462 0.8350 -5.6938 -0.4461 -1.6427 1.7868 3.4418 -1.5825 -27.7419 1.3882 -1.0827 -8.9050 -0.0000 -0.0000 0.0000 -88.3942 65.6217 20.6937 0.8031 -1.3907 -0.0097 -0.0000 0.0000 -5.2421 -5.1932 -11.0999 1.0024 -7.1250 0.0000 -0.0000 -22.3042 19.1733 14.9082 -0.0000 -0.0000 0.0000 114.0197 -69.3995 -91.7486 -5.2411 8.9906 -0.4123 0.0000 0.0000 35.7008 0.7262 -41.2796 -0.4791 7.1250 -0.0000 -0.0000 47.5764 -65.0633 -25.6597
11.1061 18.3954 11.2178 0.8526 -5.9399 24.2532 0.0000 0.0000 0.0000 5.5482 -16.6766 -81.0725 14.8895 19.3620 74.9037 0.4151 -10.7277 -12.8090 0.0156 0.8074 2.2191 0.0000 0.0000 0.0000 -1.7223 12.1328 -79.8893 -15.0574 -19.4039 75.4097 -1.2466 -1.2402 -21.5806 -0.3769 -3.9430 10.9163 1.9689 1.0441 21.4670 -0.2143 1.7178 5.8080 -1.7914 0.8073 -5.5879 -0.4950 -1.6934 1.3849 3.5219 -1.6406 -28.0190 1.4290 -1.1151 -8.9263 0.0000 0.0000 0.0000 -90.3580 67.1802 19.4278 0.7160 -1.2399 -0.0077 -0.0000 0.0000 -6.7154 -5.8868 -11.1011 1.1373 -7.1250 0.0000 -0.0000 -22.7550 19.1668 15.2682 0.0000 0.0000 0.0000 117.7569 -70.2699 -99.6249 -5.3161 9.1168 -0.4241 0.0000 0.0000 35.7755 0.4942 -41.0370 -0.3244 7.1250 -0.0000 -0.0000 46.9798 -64.9647 -25.1680
11.1126 18.1773 11.1685 0.8771 -5.8448 24.4100 0.0000 0.0000 0.0000 5.6680 -16.5637 -82.0323 15.3014 19.4622 76.1428 0.5046 -10.9845 -13.8336 0.0235 0.9899 2.7210 0.0000 0.0000 0.0000 -1.7368 11.9091 -80.4377 -15.1953 -19.4373 75.8242 -1.3445 -0.7918 -22.2198 -0.4808 -4.4465 12.3363 1.9790 0.9637 21.7789 -0.1268 1.6271 5.8708 -1.6869 0.7619 -5.6872 -0.4535 -1.7503 0.9757 3.4955 -1.7275 -28.2282 1.4185 -1.1598 -8.9245 0.0000 -0.0000 0.0000 -92.3266 68.4659 18.1033 0.6513 -1.1278 -0.0064 -0.0000 0.0000 -7.7785 -6.7019 -11.0392 1.2890 -7.1250 0.0000 -0.0000 -23.2916 19.2150 15.6699 0.0000 -0.0000 0.0000 121.0287 -70.9812 -105.7166 -5.3992 9.2565 -0.4374 0.0000 0.0000 35.0991 -0.1586 -40.9049 0.1038 7.1250 -0.0000 -0.0000 46.1628 -65.0608 -24.7410
11.1159 17.9632 11.1262 0.9069 -5.7479 24.5293 0.0000 0.0000 0.0000 5.7298 -16.4034 -82.9268 15.7002 19.5508 77.3373 0.5951 -11.1541 -14.7811 0.0337 1.1854 3.2591 0.0000 0.0000 0.0000 -1.7180 11.6869 -80.8611 -15.3112 -19.4645 76.1723 -1.4535 -0.2636 -22.9032 -0.5972 -4.9473 13.7582 1.9468 0.8727 22.1470 -0.0377 1.5167 5.8729 -1.5525 0.7056 -5.8826 -0.3620 -1.8117 0.6430 3.4530 -1.8202 -28.5050 1.3965 -1.2122 -8.9620 0.0000 0.0000 0.0000 -94.0808 69.2502 16.9155 0.5070 -0.8781 -0.0039 -0.0000 0.0000 -8.3198 -7.4902 -11.0656 1.4456 -7.1250 0.0000 -0.0000 -23.7943 19.1790 16.0982 0.0000 0.0000 0.0000 123.4958 -71.4487 -109.6858 -5.4631 9.3637 -0.4477 0.0000 0.0000 34.1636 -0.9461 -40.7827 0.6180 7.1250 -0.0000 -0.0000 45.2295 -65.2019 -24.2870
11.1159 17.7546 11.0890 0.9285 -5.6656 24.5936 0.0000 0.0000 0.0000 5.7581 -16.1798 -83.7659 16.0795 19.6274 78.4684 0.6853 -11.1727 -15.6348 0.0421 1.3250 3.6435 0.0000 0.0000 0.0000 -1.6831 11.4929 -81.2272 -15.4403 -19.4941 76.5595 -1.5692 0.2512 -23.6260 -0.7134 -5.3977 15.0463 1.8850 0.7791 22.5386 0.0433 1.3966 5.8705 -1.4065 0.6450 -6.0950 -0.2423 -1.8814 0.3592 3.4359 -1.9161 -28.8579 1.3806 -1.2731 -9.0365 0.0000 0.0000 0.0000 -95.4363 69.5649 15.9823 0.4130 -0.7153 -0.0026 -0.0000 0.0000 -8.2723 -8.2307 -11.0787 1.5922 -7.1250 0.0000 -0.0000 -24.2654 19.1536 16.5004 0.0000 0.0000 0.0000 124.7861 -71.6143 -111.3786 -5.4891 9.4074 -0.4520 0.0000 0.0000 33.5000 -1.4426 -40.5477 0.9379 7.1250 -0.0000 -0.0000 44.3947 -65.1789 -23.7334
